<?xml version="1.0" standalone="no"?>
<!DOCTYPE svg PUBLIC "-//W3C//DTD SVG 20010904//EN"
 "http://www.w3.org/TR/2001/REC-SVG-20010904/DTD/svg10.dtd">
<svg version="1.0" xmlns="http://www.w3.org/2000/svg"
 width="500.000000pt" height="500.000000pt" viewBox="0 0 500.000000 500.000000"
 preserveAspectRatio="xMidYMid meet">

<g transform="translate(0.000000,500.000000) scale(0.100000,-0.100000)"
fill="#000000" stroke="none">
<path d="M1675 4440 c-151 -15 -264 -69 -371 -175 -66 -65 -98 -118 -486 -785
-433 -743 -458 -793 -473 -926 -8 -77 9 -201 39 -274 26 -65 788 -1376 852
-1467 78 -110 193 -191 334 -235 l75 -23 860 0 860 0 80 28 c143 50 243 123
319 230 24 34 221 368 439 742 448 770 450 773 450 945 0 172 -2 175 -450 945
-218 374 -415 708 -439 742 -58 81 -133 146 -219 189 -143 71 -92 67 -990 70
-445 1 -841 -2 -880 -6z m1725 -144 c30 -10 79 -32 109 -48 112 -64 129 -89
565 -838 250 -429 417 -727 429 -764 26 -82 26 -209 0 -292 -28 -87 -823
-1449 -882 -1510 -62 -65 -149 -118 -228 -140 -64 -18 -118 -19 -893 -19 -779
0 -829 1 -894 19 -89 25 -200 99 -253 168 -71 94 -834 1416 -856 1482 -26 83
-26 210 0 292 13 38 177 331 429 764 436 749 453 774 565 838 53 29 133 57
194 65 17 3 397 4 845 3 759 -1 819 -3 870 -20z"/>
<path d="M1616 4229 c-72 -25 -149 -73 -198 -125 -40 -43 -814 -1380 -844
-1459 -26 -70 -26 -220 0 -290 34 -90 804 -1416 849 -1463 23 -24 67 -58 97
-77 109 -66 91 -65 977 -65 880 0 861 -1 972 62 109 62 122 82 542 813 238
413 403 712 413 744 22 74 21 195 -2 268 -19 60 -776 1383 -832 1454 -42 53
-139 115 -217 139 -63 19 -92 20 -882 20 -793 -1 -818 -1 -875 -21z m1795 -71
c125 -62 151 -96 363 -464 550 -955 594 -1034 605 -1084 16 -72 14 -168 -4
-228 l-16 -52 -1860 0 -1859 0 -12 28 c-7 15 -12 78 -13 143 l0 117 40 78 c23
44 203 360 400 704 238 412 374 638 401 666 47 48 118 91 189 116 46 16 112
17 871 15 l820 -2 75 -37z m-2181 -2113 l0 -115 45 0 44 0 3 113 3 112 58 3
57 3 0 -271 0 -270 -60 0 -60 0 0 105 0 105 -45 0 -45 0 0 -105 0 -105 -60 0
-60 0 0 263 c0 145 3 267 7 270 3 4 30 7 60 7 l53 0 0 -115z m555 109 c39 -15
45 -53 45 -299 l0 -235 -60 0 -60 0 0 90 0 90 -40 0 -40 0 0 -90 0 -90 -60 0
-60 0 0 208 c1 327 4 332 160 332 54 0 106 -3 115 -6z m243 -226 l2 -228 35 0
35 0 0 230 0 230 60 0 60 0 0 -237 c0 -317 -2 -321 -185 -311 -61 3 -79 7 -97
26 -22 22 -23 28 -26 273 l-3 250 58 -3 58 -3 3 -227z m380 10 l2 -218 60 0
60 0 0 -50 0 -50 -120 0 -120 0 0 270 0 271 58 -3 57 -3 3 -217z m422 172 l0
-50 -65 0 -65 0 0 -60 0 -60 60 0 60 0 0 -50 0 -50 -60 0 -60 0 0 -60 0 -60
65 0 65 0 0 -50 0 -50 -125 0 -125 0 0 263 c0 145 3 267 7 270 3 4 60 7 125 7
l118 0 0 -50z m340 32 c32 -26 39 -82 40 -314 l0 -208 -60 0 -60 0 0 90 0 90
-40 0 -40 0 0 -90 0 -90 -60 0 -60 0 0 235 c0 241 6 284 42 298 7 3 59 6 114
6 84 1 106 -2 124 -17z m365 12 c24 -9 45 -58 45 -104 l0 -40 -55 0 c-54 0
-55 0 -55 30 0 28 -3 30 -35 30 l-35 0 0 -59 0 -58 66 -6 c54 -4 71 -10 93
-31 23 -24 26 -35 30 -113 6 -160 -20 -193 -154 -193 -118 0 -155 31 -155 132
l0 39 58 -3 57 -3 3 -37 c3 -36 5 -38 37 -38 37 0 45 12 45 70 0 66 -5 70 -77
70 -54 0 -68 4 -88 24 -30 30 -39 77 -33 174 5 67 8 78 32 99 24 20 37 23 116
23 48 0 96 -3 105 -6z m365 -44 l0 -50 -65 0 -65 0 0 -60 0 -60 60 0 60 0 0
-50 0 -50 -60 0 -60 0 0 -60 0 -60 65 0 65 0 0 -50 0 -50 -125 0 -125 0 0 263
c0 145 3 267 7 270 3 4 60 7 125 7 l118 0 0 -50z m-2362 -637 c2 -16 -2 -23
-12 -23 -9 0 -16 5 -16 10 0 6 -7 10 -16 10 -25 0 -12 -33 16 -40 22 -5 25
-11 25 -50 l0 -45 -40 0 c-34 0 -40 3 -43 23 -2 15 2 22 12 22 9 0 16 -4 16
-10 0 -5 7 -10 15 -10 8 0 15 9 15 19 0 14 -8 21 -27 23 -24 2 -29 8 -31 36
-5 53 3 64 45 60 31 -2 39 -7 41 -25z m82 -8 c0 -24 5 -35 15 -35 11 0 15 11
15 36 0 28 3 35 18 32 14 -3 17 -16 20 -86 3 -77 2 -82 -18 -82 -16 0 -20 6
-20 30 0 20 -5 30 -15 30 -10 0 -15 -10 -15 -30 0 -23 -4 -30 -20 -30 -18 0
-20 7 -20 85 0 78 2 85 20 85 16 0 20 -7 20 -35z m140 -50 c0 -78 -2 -85 -20
-85 -18 0 -20 7 -20 78 0 80 3 92 27 92 10 0 13 -21 13 -85z m138 37 c3 -40 1
-44 -27 -55 -24 -9 -31 -17 -31 -39 0 -21 -5 -28 -20 -28 -18 0 -20 7 -20 86
l0 85 48 -3 47 -3 3 -43z m130 0 c3 -40 1 -44 -27 -55 -24 -9 -31 -17 -31 -39
0 -21 -5 -28 -20 -28 -18 0 -20 7 -20 86 l0 85 48 -3 47 -3 3 -43z m72 -37 c0
-78 -2 -85 -20 -85 -18 0 -20 7 -20 85 0 78 2 85 20 85 18 0 20 -7 20 -85z
m134 69 c3 -9 6 -47 6 -85 0 -62 -2 -69 -20 -69 -18 0 -20 7 -20 70 0 40 -4
70 -10 70 -6 0 -10 -30 -10 -70 0 -63 -2 -70 -20 -70 -18 0 -20 7 -20 78 0 43
3 82 7 85 14 14 81 7 87 -9z m134 4 c18 -18 14 -38 -8 -38 -11 0 -20 5 -20 10
0 6 -4 10 -10 10 -6 0 -10 -27 -10 -60 0 -38 4 -60 11 -60 8 0 10 12 6 35 -5
32 -4 35 19 35 20 0 24 -5 24 -32 0 -49 -12 -60 -56 -56 l-39 3 -3 69 c-2 38
-1 75 2 83 7 16 68 17 84 1z m342 -58 c0 -63 2 -70 20 -70 11 0 20 -7 20 -15
0 -11 -11 -15 -40 -15 l-40 0 0 78 c0 80 3 92 27 92 10 0 13 -18 13 -70z m165
-15 l0 -80 -45 0 -45 0 -3 60 c-5 95 1 107 51 103 l42 -3 0 -80z m143 58 c2
-16 -2 -23 -12 -23 -9 0 -16 5 -16 10 0 6 -7 10 -15 10 -11 0 -15 -13 -15 -54
0 -30 5 -58 10 -61 15 -9 25 24 11 38 -18 18 -13 27 15 27 23 0 25 -3 22 -42
-3 -42 -4 -43 -42 -46 -48 -4 -56 6 -56 76 0 75 12 94 58 90 30 -2 38 -8 40
-25z m72 -58 c0 -78 -2 -85 -20 -85 -18 0 -20 7 -20 78 0 80 3 92 27 92 10 0
13 -21 13 -85z m138 58 c3 -18 -2 -23 -17 -23 -12 0 -21 5 -21 10 0 6 -4 10
-10 10 -5 0 -10 -9 -10 -19 0 -14 8 -21 28 -23 25 -3 27 -6 27 -48 l0 -45 -39
-3 c-24 -2 -42 2 -47 10 -15 22 -10 38 11 38 11 0 20 -4 20 -10 0 -5 5 -10 10
-10 6 0 10 9 10 20 0 13 -7 20 -20 20 -29 0 -47 42 -32 76 10 21 18 25 50 22
30 -2 38 -7 40 -25z m122 13 c0 -8 -7 -16 -15 -20 -11 -4 -15 -22 -15 -71 0
-58 -2 -65 -20 -65 -18 0 -20 7 -20 70 0 40 -4 70 -10 70 -5 0 -10 7 -10 15 0
11 12 15 45 15 32 0 45 -4 45 -14z m70 -71 c0 -78 -2 -85 -20 -85 -18 0 -20 7
-20 85 0 78 2 85 20 85 18 0 20 -7 20 -85z m128 73 c18 -18 14 -38 -8 -38 -11
0 -20 5 -20 10 0 6 -4 10 -10 10 -6 0 -10 -27 -10 -60 0 -33 4 -60 10 -60 6 0
10 7 10 15 0 8 9 15 20 15 21 0 26 -16 11 -38 -5 -8 -23 -12 -47 -10 l-39 3
-3 69 c-2 38 -1 75 2 83 7 16 68 17 84 1z m-988 -2 c0 -2 3 -12 7 -22 5 -15 2
-16 -25 -11 -24 5 -32 3 -32 -8 0 -8 13 -15 33 -17 31 -3 32 -4 28 -43 -4 -53
-6 -55 -51 -55 -28 0 -40 5 -44 18 -7 23 -2 115 8 130 6 11 76 18 76 8z m1138
-304 c-1 -4 -25 -48 -53 -98 -87 -155 -201 -249 -334 -274 -72 -13 -1549 -14
-1622 0 -78 15 -169 64 -226 123 -40 41 -163 232 -163 253 0 2 540 4 1201 4
660 0 1199 -4 1197 -8z"/>
<path d="M1637 2073 c-4 -3 -7 -46 -7 -95 l0 -88 40 0 40 0 0 95 0 95 -33 0
c-19 0 -37 -3 -40 -7z"/>
<path d="M3010 1986 l0 -96 40 0 41 0 -3 93 -3 92 -37 3 -38 3 0 -95z"/>
<path d="M1840 1445 c0 -14 5 -25 10 -25 6 0 10 11 10 25 0 14 -4 25 -10 25
-5 0 -10 -11 -10 -25z"/>
<path d="M1970 1445 c0 -14 5 -25 10 -25 6 0 10 11 10 25 0 14 -4 25 -10 25
-5 0 -10 -11 -10 -25z"/>
<path d="M2820 1410 c0 -33 4 -60 10 -60 6 0 10 27 10 60 0 33 -4 60 -10 60
-6 0 -10 -27 -10 -60z"/>
<path d="M2510 1375 c0 -8 7 -15 15 -15 8 0 15 7 15 15 0 8 -7 15 -15 15 -8 0
-15 -7 -15 -15z"/>
<path d="M1896 1093 c-3 -3 -6 -48 -6 -100 0 -86 1 -93 20 -93 18 0 20 7 20
85 0 69 3 85 15 85 12 0 15 -16 15 -85 0 -78 2 -85 20 -85 18 0 20 7 20 85 0
69 3 85 15 85 12 0 15 -16 15 -85 0 -79 1 -85 20 -85 20 0 21 5 18 98 l-3 97
-81 2 c-45 2 -84 0 -88 -4z"/>
<path d="M2127 1093 c-4 -3 -7 -48 -7 -100 0 -85 2 -93 19 -93 15 0 21 8 23
33 2 20 8 32 18 32 10 0 16 -12 18 -32 2 -25 8 -33 23 -33 17 0 19 8 19 84 0
112 -2 116 -59 116 -26 0 -51 -3 -54 -7z m71 -56 c3 -32 0 -37 -17 -37 -17 0
-21 6 -21 33 0 61 33 63 38 4z"/>
<path d="M2290 1000 l0 -100 45 0 c38 0 45 3 45 20 0 15 -7 20 -25 20 -25 0
-25 1 -25 80 0 73 -2 80 -20 80 -19 0 -20 -7 -20 -100z"/>
<path d="M2427 1093 c-4 -3 -7 -48 -7 -100 0 -86 1 -93 20 -93 16 0 20 7 20
35 0 24 5 35 15 35 10 0 15 -11 15 -35 0 -31 3 -35 25 -35 25 0 25 1 25 84 0
112 -2 116 -59 116 -26 0 -51 -3 -54 -7z m63 -53 c0 -29 -4 -40 -15 -40 -10 0
-15 10 -15 33 0 19 3 37 7 40 15 16 23 5 23 -33z"/>
<path d="M2580 1092 c0 -5 9 -35 20 -67 11 -32 20 -73 20 -92 0 -26 4 -33 20
-33 16 0 20 7 20 33 0 19 9 60 20 92 25 72 25 75 0 75 -14 0 -21 -9 -26 -35
-3 -19 -10 -35 -14 -35 -4 0 -11 16 -14 35 -5 26 -12 35 -26 35 -11 0 -20 -4
-20 -8z"/>
<path d="M2747 1094 c-12 -12 -8 -89 5 -102 7 -7 22 -12 35 -12 18 0 23 -6 23
-25 0 -16 -6 -25 -15 -25 -8 0 -15 7 -15 15 0 8 -9 15 -20 15 -12 0 -20 -7
-20 -17 0 -34 15 -44 61 -41 l44 3 0 55 c0 55 0 55 -32 58 -27 3 -33 7 -33 28
0 15 6 24 15 24 8 0 15 -4 15 -10 0 -5 9 -10 21 -10 15 0 20 5 17 23 -3 19
-10 22 -48 25 -25 2 -49 0 -53 -4z"/>
<path d="M2900 1000 c0 -93 1 -100 20 -100 19 0 20 7 20 100 0 93 -1 100 -20
100 -19 0 -20 -7 -20 -100z"/>
<path d="M3007 1094 c-4 -4 -7 -49 -7 -101 0 -86 1 -93 20 -93 16 0 20 7 20
35 0 24 5 35 15 35 10 0 15 -11 15 -35 0 -29 4 -35 20 -35 20 0 21 5 18 98
l-3 97 -45 3 c-25 2 -49 0 -53 -4z m63 -60 c0 -24 -5 -34 -15 -34 -10 0 -15
10 -15 33 0 19 3 37 6 40 13 13 24 -5 24 -39z"/>
</g>
</svg>
